
<svg width="624px" height="325px" viewBox="0 0 624 325" version="1.1" xmlns="http://www.w3.org/2000/svg" xmlns:xlink="http://www.w3.org/1999/xlink">
    <defs>
        <rect id="path-1" x="0" y="0" width="220" height="192" rx="8"></rect>
        <filter x="-3.2%" y="-2.6%" width="106.4%" height="107.3%" filterUnits="objectBoundingBox" id="filter-2">
            <feOffset dx="0" dy="2" in="SourceAlpha" result="shadowOffsetOuter1"></feOffset>
            <feGaussianBlur stdDeviation="2" in="shadowOffsetOuter1" result="shadowBlurOuter1"></feGaussianBlur>
            <feColorMatrix values="0 0 0 0 0.789741848   0 0 0 0 0.789741848   0 0 0 0 0.789741848  0 0 0 0.5 0" type="matrix" in="shadowBlurOuter1"></feColorMatrix>
        </filter>
    </defs>
    <g id="Illustration" stroke="none" stroke-width="1" fill="none" fill-rule="evenodd">
        <g id="Artboard" transform="translate(-328.000000, -235.000000)">
            <g id="Group-2" transform="translate(328.000000, 236.000000)">
                <circle id="Oval" fill="#BDD8D8" cx="23.5" cy="74.5" r="23.5"></circle>
                <circle id="Oval" fill="#BDD8D8" cx="600.5" cy="192.5" r="23.5"></circle>
                <circle id="Oval" fill="#BDD8D8" cx="131.5" cy="290.5" r="23.5"></circle>
                <circle id="Oval" fill="#BDD8D8" opacity="0.468377976" cx="475.5" cy="150.5" r="26.5"></circle>
                <circle id="Oval" fill="#C8E5E5" cx="329" cy="280" r="32"></circle>
                <rect id="Rectangle" fill="#BDD8D8" opacity="0.592238653" x="431" y="233" width="71" height="24" rx="8"></rect>
                <circle id="Oval" fill="#CBE4E4" opacity="0.540969122" cx="46" cy="198" r="32"></circle>
                <rect id="Rectangle" fill="#BDD8D8" x="93" y="216" width="71" height="24" rx="8"></rect>
                <circle id="Oval" fill="#BDD8D8" cx="91.5" cy="112.5" r="23.5"></circle>
                <path d="M44,166 L44,130 C44,119.333333 49.3333333,114 60,114 C70.6666667,114 73.3333333,113.5 68,112.5" id="Path-9" stroke="#BDD8D8"></path>
                <path d="M332.87591,248 L332.87591,202.908073 C332.718722,192.48868 337.928418,187.278983 348.505,187.278983 C359.081582,187.278983 398.413248,187.278983 466.5,187.278983 C473.352655,187.759661 476.778983,184.333333 476.778983,177" id="Path-11" stroke="#ABC9C9" stroke-dasharray="4"></path>
                <path d="M190,228 L364.759804,228 C374.923703,228.051672 380.005653,230.718338 380.005653,236 C380.005653,241.281662 382.867273,244.143282 388.590513,244.584861 L431,244.584861" id="Path-12" stroke="#EEF9F9" stroke-width="2"></path>
                <rect id="Rectangle" fill="#BDD8D8" opacity="0.426269531" x="518" y="300" width="97" height="24" rx="8"></rect>
                <path d="M518,313.93325 L475.5,313.93325 C469.5,315.058186 466.5,308.965131 466.5,295.654087 C466.5,282.343042 466.5,269.479927 466.5,257.064742" id="Path-13" stroke="#DDF2F2" stroke-width="2"></path>
                <g id="Group-4" transform="translate(198.000000, 44.000000)">
                    <g id="Menu-/-Application">
                        <g id="Rectangle">
                            <use fill="black" fill-opacity="1" filter="url(#filter-2)" xlink:href="#path-1"></use>
                            <use fill="#FFFFFF" fill-rule="evenodd" xlink:href="#path-1"></use>
                        </g>
                        <g id="Menu-/-Application-/-Inactive-Item-(with-Arrow)" transform="translate(0.000000, 6.000000)" fill="#BDBDBD" font-family="SFProText-Regular, SF Pro Text" font-size="14" font-weight="normal" letter-spacing="-0.150000006">
                            <text id="Item">
                                <tspan x="21" y="14">Listening Processes</tspan>
                            </text>
                        </g>
                        <g id="Menu-/-Application-/-Inactive-Item-(with-Arrow)" transform="translate(0.000000, 94.000000)" fill="#BDBDBD" font-family="SFProText-Regular, SF Pro Text" font-size="14" font-weight="normal" letter-spacing="-0.150000006">
                            <text id="Item">
                                <tspan x="21" y="14">Preferences</tspan>
                            </text>
                        </g>
                        <g id="Menu-/-Divider" transform="translate(0.000000, 160.000000)" fill="#000000" fill-opacity="0.07">
                            <rect id="Divider" x="0" y="0" width="220" height="2"></rect>
                        </g>
                        <g id="Menu-/-Application-/-Item-(with-Arrow)" transform="translate(0.000000, 132.000000)" fill="#4C4C4C" font-family="SFProText-Regular, SF Pro Text" font-size="14" font-weight="normal" letter-spacing="-0.150000006">
                            <text id="Item">
                                <tspan x="21" y="14">About Port Manager</tspan>
                            </text>
                        </g>
                        <g id="Menu-/-Application-/-Item-(with-Arrow)" transform="translate(0.000000, 113.000000)" fill="#4C4C4C" font-family="SFProText-Regular, SF Pro Text" font-size="14" font-weight="normal" letter-spacing="-0.150000006">
                            <text id="Item">
                                <tspan x="21" y="14">Open at Login</tspan>
                            </text>
                        </g>
                        <g id="Menu-/-Application-/-Item-(with-Shortcut)" transform="translate(0.000000, 167.000000)" font-family="SFProText-Regular, SF Pro Text" font-size="14" font-weight="normal" letter-spacing="-0.150000006">
                            <text id="Shortcut" fill="#444444">
                                <tspan x="188.64082" y="14">⌘Q</tspan>
                            </text>
                            <text id="Item" fill="#4C4C4C">
                                <tspan x="21" y="14">Quit</tspan>
                            </text>
                        </g>
                        <g id="Menu-/-Divider" transform="translate(0.000000, 87.000000)" fill="#000000" fill-opacity="0.07">
                            <rect id="Divider" x="0" y="0" width="220" height="2"></rect>
                        </g>
                        <g id="Menu-/-Application-/-Item-(with-Arrow)" transform="translate(0.000000, 63.000000)">
                            <g id="Icons-/-Menu-/-Arrow" transform="translate(199.000000, 4.000000)" fill="#434343" fill-rule="evenodd">
                                <polygon id="Arrow" points="0 10.5 7.49400542e-16 0.5 9 5.5"></polygon>
                            </g>
                            <text id="Item" font-family="SFProText-Regular, SF Pro Text" font-size="14" font-weight="normal" letter-spacing="-0.150000006" fill="#4C4C4C">
                                <tspan x="21" y="14">5000 · Python</tspan>
                            </text>
                        </g>
                        <g id="Menu-/-Application-/-Item-(with-Arrow)" transform="translate(0.000000, 44.000000)">
                            <g id="Icons-/-Menu-/-Arrow" transform="translate(199.000000, 4.000000)" fill="#434343" fill-rule="evenodd">
                                <polygon id="Arrow" points="0 10.5 7.49400542e-16 0.5 9 5.5"></polygon>
                            </g>
                            <text id="Item" font-family="SFProText-Regular, SF Pro Text" font-size="14" font-weight="normal" letter-spacing="-0.150000006" fill="#4C4C4C">
                                <tspan x="21" y="14">8888 · httpd</tspan>
                            </text>
                        </g>
                        <g id="Menu-/-Application-/-Item-(with-Arrow)" transform="translate(0.000000, 25.000000)">
                            <g id="Icons-/-Menu-/-Arrow" transform="translate(199.000000, 4.000000)" fill="#434343" fill-rule="evenodd">
                                <polygon id="Arrow" points="0 10.5 7.49400542e-16 0.5 9 5.5"></polygon>
                            </g>
                            <text id="Item" font-family="SFProText-Regular, SF Pro Text" font-size="14" font-weight="normal" letter-spacing="-0.150000006" fill="#4C4C4C">
                                <tspan x="21" y="14">3000 · Node</tspan>
                            </text>
                        </g>
                    </g>
                </g>
                <path d="M246.465177,44 C246.465177,38.9530746 246.465177,30.6091783 246.465177,18.9683112 C246.465177,7.32744397 240.39783,1.26009666 228.263135,0.76626923 C222.202272,0.76626923 212.11456,0.76626923 198,0.76626923 C183.88544,0.76626923 177.052107,15.1775128 177.5,44 L177.5,139.5 C174.833333,157.166667 166,166 151,166 C128.5,166 128.5,179 128.5,188.5 C128.5,194.833333 128.5,204 128.5,216" id="Path-8" stroke="#BDD8D8" stroke-width="2" stroke-dasharray="4"></path>
                <path d="M115,112.5 L198,112.5" id="Path-14" stroke="#BDD8D8"></path>
            </g>
        </g>
    </g>
</svg>